<mxfile host="www.draw.io" modified="2023-05-14T16:36:23.044Z" agent="Mozilla/5.0 (Windows NT 10.0; Win64; x64) AppleWebKit/537.36 (KHTML, like Gecko) Chrome/113.0.0.0 Safari/537.36" etag="ClIB1oHd-VmvxYm8mVWr" version="21.3.0" type="device">
  <diagram name="Страница 1" id="wu8OJ4tMQGNceCFuAvfZ">
    <mxGraphModel dx="989" dy="549" grid="0" gridSize="10" guides="1" tooltips="1" connect="1" arrows="1" fold="1" page="1" pageScale="1" pageWidth="827" pageHeight="1169" math="0" shadow="0">
      <root>
        <mxCell id="0" />
        <mxCell id="1" parent="0" />
        <mxCell id="Yv1bZTzNORJq8Iai0tCU-1" value="Actor" style="shape=umlActor;verticalLabelPosition=bottom;verticalAlign=top;html=1;outlineConnect=0;" vertex="1" parent="1">
          <mxGeometry x="375" y="240" width="30" height="60" as="geometry" />
        </mxCell>
        <mxCell id="Yv1bZTzNORJq8Iai0tCU-24" style="rounded=0;orthogonalLoop=1;jettySize=auto;html=1;" edge="1" parent="1" source="Yv1bZTzNORJq8Iai0tCU-2">
          <mxGeometry relative="1" as="geometry">
            <mxPoint x="390" y="330" as="targetPoint" />
          </mxGeometry>
        </mxCell>
        <mxCell id="Yv1bZTzNORJq8Iai0tCU-2" value="Просмотр главной страницы сайта" style="ellipse;whiteSpace=wrap;html=1;" vertex="1" parent="1">
          <mxGeometry x="330" y="445" width="120" height="50" as="geometry" />
        </mxCell>
        <mxCell id="Yv1bZTzNORJq8Iai0tCU-17" style="rounded=0;orthogonalLoop=1;jettySize=auto;html=1;" edge="1" parent="1" source="Yv1bZTzNORJq8Iai0tCU-3">
          <mxGeometry relative="1" as="geometry">
            <mxPoint x="390" y="220" as="targetPoint" />
          </mxGeometry>
        </mxCell>
        <mxCell id="Yv1bZTzNORJq8Iai0tCU-3" value="Просмотр информации о системе" style="ellipse;whiteSpace=wrap;html=1;" vertex="1" parent="1">
          <mxGeometry x="330" y="80" width="120" height="50" as="geometry" />
        </mxCell>
        <mxCell id="Yv1bZTzNORJq8Iai0tCU-31" style="rounded=0;orthogonalLoop=1;jettySize=auto;html=1;" edge="1" parent="1" source="Yv1bZTzNORJq8Iai0tCU-4">
          <mxGeometry relative="1" as="geometry">
            <mxPoint x="400" y="230" as="targetPoint" />
          </mxGeometry>
        </mxCell>
        <mxCell id="Yv1bZTzNORJq8Iai0tCU-4" value="Просмотр профиля сотрудника" style="ellipse;whiteSpace=wrap;html=1;" vertex="1" parent="1">
          <mxGeometry x="450" y="90" width="120" height="50" as="geometry" />
        </mxCell>
        <mxCell id="Yv1bZTzNORJq8Iai0tCU-30" style="rounded=0;orthogonalLoop=1;jettySize=auto;html=1;" edge="1" parent="1" source="Yv1bZTzNORJq8Iai0tCU-5">
          <mxGeometry relative="1" as="geometry">
            <mxPoint x="410" y="240" as="targetPoint" />
          </mxGeometry>
        </mxCell>
        <mxCell id="Yv1bZTzNORJq8Iai0tCU-5" value="Редактирование профиля сотрудника" style="ellipse;whiteSpace=wrap;html=1;" vertex="1" parent="1">
          <mxGeometry x="480" y="150" width="120" height="50" as="geometry" />
        </mxCell>
        <mxCell id="Yv1bZTzNORJq8Iai0tCU-29" style="rounded=0;orthogonalLoop=1;jettySize=auto;html=1;" edge="1" parent="1" source="Yv1bZTzNORJq8Iai0tCU-6">
          <mxGeometry relative="1" as="geometry">
            <mxPoint x="420" y="260" as="targetPoint" />
          </mxGeometry>
        </mxCell>
        <mxCell id="Yv1bZTzNORJq8Iai0tCU-6" value="Просмотр истории отпусков" style="ellipse;whiteSpace=wrap;html=1;" vertex="1" parent="1">
          <mxGeometry x="480" y="210" width="120" height="50" as="geometry" />
        </mxCell>
        <mxCell id="Yv1bZTzNORJq8Iai0tCU-28" style="rounded=0;orthogonalLoop=1;jettySize=auto;html=1;" edge="1" parent="1" source="Yv1bZTzNORJq8Iai0tCU-7">
          <mxGeometry relative="1" as="geometry">
            <mxPoint x="420" y="270" as="targetPoint" />
          </mxGeometry>
        </mxCell>
        <mxCell id="Yv1bZTzNORJq8Iai0tCU-7" value="Создать запрос на отпуск" style="ellipse;whiteSpace=wrap;html=1;" vertex="1" parent="1">
          <mxGeometry x="480" y="270" width="120" height="50" as="geometry" />
        </mxCell>
        <mxCell id="Yv1bZTzNORJq8Iai0tCU-27" style="rounded=0;orthogonalLoop=1;jettySize=auto;html=1;" edge="1" parent="1" source="Yv1bZTzNORJq8Iai0tCU-8">
          <mxGeometry relative="1" as="geometry">
            <mxPoint x="420" y="300" as="targetPoint" />
          </mxGeometry>
        </mxCell>
        <mxCell id="Yv1bZTzNORJq8Iai0tCU-8" value="Просмотр истории больничных" style="ellipse;whiteSpace=wrap;html=1;" vertex="1" parent="1">
          <mxGeometry x="480" y="330" width="120" height="50" as="geometry" />
        </mxCell>
        <mxCell id="Yv1bZTzNORJq8Iai0tCU-26" style="rounded=0;orthogonalLoop=1;jettySize=auto;html=1;" edge="1" parent="1" source="Yv1bZTzNORJq8Iai0tCU-9">
          <mxGeometry relative="1" as="geometry">
            <mxPoint x="420" y="320" as="targetPoint" />
          </mxGeometry>
        </mxCell>
        <mxCell id="Yv1bZTzNORJq8Iai0tCU-9" value="Создать запрос на больничный" style="ellipse;whiteSpace=wrap;html=1;" vertex="1" parent="1">
          <mxGeometry x="480" y="385" width="120" height="50" as="geometry" />
        </mxCell>
        <mxCell id="Yv1bZTzNORJq8Iai0tCU-25" style="rounded=0;orthogonalLoop=1;jettySize=auto;html=1;" edge="1" parent="1" source="Yv1bZTzNORJq8Iai0tCU-10">
          <mxGeometry relative="1" as="geometry">
            <mxPoint x="410" y="340" as="targetPoint" />
          </mxGeometry>
        </mxCell>
        <mxCell id="Yv1bZTzNORJq8Iai0tCU-10" value="Просмотр списка сотрудников" style="ellipse;whiteSpace=wrap;html=1;" vertex="1" parent="1">
          <mxGeometry x="450" y="440" width="120" height="60" as="geometry" />
        </mxCell>
        <mxCell id="Yv1bZTzNORJq8Iai0tCU-18" style="rounded=0;orthogonalLoop=1;jettySize=auto;html=1;" edge="1" parent="1" source="Yv1bZTzNORJq8Iai0tCU-11">
          <mxGeometry relative="1" as="geometry">
            <mxPoint x="370" y="220" as="targetPoint" />
          </mxGeometry>
        </mxCell>
        <mxCell id="Yv1bZTzNORJq8Iai0tCU-11" value="Добавление/удаление/изменение информации о сотрудниках" style="ellipse;whiteSpace=wrap;html=1;" vertex="1" parent="1">
          <mxGeometry x="210" y="90" width="120" height="70" as="geometry" />
        </mxCell>
        <mxCell id="Yv1bZTzNORJq8Iai0tCU-19" style="rounded=0;orthogonalLoop=1;jettySize=auto;html=1;" edge="1" parent="1" source="Yv1bZTzNORJq8Iai0tCU-12">
          <mxGeometry relative="1" as="geometry">
            <mxPoint x="360" y="240" as="targetPoint" />
          </mxGeometry>
        </mxCell>
        <mxCell id="Yv1bZTzNORJq8Iai0tCU-12" value="Управление данными о должностях и отделах" style="ellipse;whiteSpace=wrap;html=1;" vertex="1" parent="1">
          <mxGeometry x="180" y="170" width="120" height="60" as="geometry" />
        </mxCell>
        <mxCell id="Yv1bZTzNORJq8Iai0tCU-20" style="rounded=0;orthogonalLoop=1;jettySize=auto;html=1;" edge="1" parent="1" source="Yv1bZTzNORJq8Iai0tCU-13">
          <mxGeometry relative="1" as="geometry">
            <mxPoint x="360" y="270" as="targetPoint" />
          </mxGeometry>
        </mxCell>
        <mxCell id="Yv1bZTzNORJq8Iai0tCU-13" value="Управление отпусками и больничными сотрудников" style="ellipse;whiteSpace=wrap;html=1;" vertex="1" parent="1">
          <mxGeometry x="160" y="240" width="120" height="60" as="geometry" />
        </mxCell>
        <mxCell id="Yv1bZTzNORJq8Iai0tCU-21" style="rounded=0;orthogonalLoop=1;jettySize=auto;html=1;" edge="1" parent="1" source="Yv1bZTzNORJq8Iai0tCU-14">
          <mxGeometry relative="1" as="geometry">
            <mxPoint x="350" y="290" as="targetPoint" />
          </mxGeometry>
        </mxCell>
        <mxCell id="Yv1bZTzNORJq8Iai0tCU-14" value="Просмотр списка пользователей и их ролей" style="ellipse;whiteSpace=wrap;html=1;" vertex="1" parent="1">
          <mxGeometry x="160" y="310" width="120" height="60" as="geometry" />
        </mxCell>
        <mxCell id="Yv1bZTzNORJq8Iai0tCU-22" style="rounded=0;orthogonalLoop=1;jettySize=auto;html=1;" edge="1" parent="1" source="Yv1bZTzNORJq8Iai0tCU-15">
          <mxGeometry relative="1" as="geometry">
            <mxPoint x="360" y="310" as="targetPoint" />
          </mxGeometry>
        </mxCell>
        <mxCell id="Yv1bZTzNORJq8Iai0tCU-15" value="Добавление/удаление/изменение данных  ролей" style="ellipse;whiteSpace=wrap;html=1;" vertex="1" parent="1">
          <mxGeometry x="160" y="380" width="120" height="60" as="geometry" />
        </mxCell>
        <mxCell id="Yv1bZTzNORJq8Iai0tCU-23" style="rounded=0;orthogonalLoop=1;jettySize=auto;html=1;" edge="1" parent="1" source="Yv1bZTzNORJq8Iai0tCU-16">
          <mxGeometry relative="1" as="geometry">
            <mxPoint x="360" y="330" as="targetPoint" />
          </mxGeometry>
        </mxCell>
        <mxCell id="Yv1bZTzNORJq8Iai0tCU-16" value="Настройка параметров системы." style="ellipse;whiteSpace=wrap;html=1;" vertex="1" parent="1">
          <mxGeometry x="200" y="445" width="120" height="50" as="geometry" />
        </mxCell>
      </root>
    </mxGraphModel>
  </diagram>
</mxfile>
